<svg xmlns="http://www.w3.org/2000/svg" xmlns:xlink="http://www.w3.org/1999/xlink" width="52" height="52" viewBox="0 0 52 52"><defs><style>.a,.b{fill:#fff;stroke:#707070;}.b{opacity:0;}.c{clip-path:url(#a);}.d{fill:#4398d1;}.e{fill:#3e8cc7;}.f{fill:#e5e5e5;}.g{fill:#d6d6d6;}.h{fill:#fdb62f;}.i{fill:#ffa230;}.j{fill:#126099;}.k{fill:#fdc353;}.l{stroke:none;}.m{fill:none;}</style><clipPath id="a"><rect class="a" width="40" height="40" transform="translate(1218 308)"/></clipPath></defs><g transform="translate(-1212 -302)"><g class="b" transform="translate(1212 302)"><rect class="l" width="52" height="52"/><rect class="m" x="0.5" y="0.5" width="51" height="51"/></g><g class="c"><g transform="translate(1218 308)"><path class="d" d="M3.448,6.9v7.31A28.372,28.372,0,0,0,20,40h0A28.372,28.372,0,0,0,36.552,14.207V6.9h0A22.882,22.882,0,0,1,21.917,1.6L20,0,18.083,1.6A22.882,22.882,0,0,1,3.448,6.9Z"/><path class="e" d="M28.09,5.269C25.669,20.1,18.7,29.145,12.076,34.559A28.3,28.3,0,0,0,20,40,28.372,28.372,0,0,0,36.552,14.207V6.9A22.9,22.9,0,0,1,28.09,5.269Z"/><path class="f" d="M22.759,19.31V15.172A2.759,2.759,0,0,0,20,12.414h0a2.759,2.759,0,0,0-2.759,2.759V19.31H14.483V15.172A5.518,5.518,0,0,1,20,9.655h0a5.518,5.518,0,0,1,5.517,5.517V19.31Z"/><path class="g" d="M14.483,19.31h2.759V16.055a27.273,27.273,0,0,1-2.759,1.186Z"/><path class="g" d="M23.786,11.166A18.7,18.7,0,0,1,21.807,13.1a2.757,2.757,0,0,1,.952,2.069V19.31h2.759V15.173A5.515,5.515,0,0,0,23.786,11.166Z"/><rect class="h" width="15.172" height="12.414" transform="translate(12.414 17.931)"/><rect class="h" width="15.172" height="12.414" transform="translate(12.414 17.931)"/><path class="i" d="M27.586,30.345H12.414A14.942,14.942,0,0,1,27.586,30.345Z"/><rect class="j" width="1.379" height="3.448" transform="translate(19.31 24.138)"/><circle class="j" cx="1.379" cy="1.379" r="1.379" transform="translate(18.621 22.069)"/><path class="k" d="M12.414,17.931H27.586A14.942,14.942,0,0,1,12.414,17.931Z"/><path class="k" d="M8.966,15.862a3.449,3.449,0,0,1,3.448-3.448A3.449,3.449,0,0,1,8.966,8.965"/><path class="k" d="M8.966,8.966a3.449,3.449,0,0,1-3.448,3.448,3.449,3.449,0,0,1,3.448,3.448"/></g></g></g></svg>