<svg xmlns="http://www.w3.org/2000/svg" width="254.579" height="236.077" viewBox="0 0 254.579 236.077"><defs><style>.a{opacity:0.8;}.b{fill:#fcf5f5;}.b,.c,.e,.h{mix-blend-mode:multiply;isolation:isolate;}.c{fill:#fff8f8;}.d{fill:#ffaa8d;}.e{opacity:0.47;}.f{fill:#d17252;}.g{fill:#ec5a65;}</style></defs><g transform="translate(-818.911 -620.892)"><g class="a" transform="translate(-10.289 522.581)"><path class="b" d="M1052.287,140.954c-9.045-16.958-25.016-24.842-45.119-20.118-18.908,4.443-35.781,15.572-50.06,27.465a7.58,7.58,0,0,1-9.782,0c-10.683-8.108-20.545-18.479-33.754-23.139a39.635,39.635,0,0,0-37.328,5.619c-18.17,13.764-25.585,39.251-24,60.163,1.659,21.943,17.061,39.873,32.655,55.393,23.569,23.458,48.5,45.576,74.258,66.878a303.334,303.334,0,0,0,56.4-45.691C1047.436,234.429,1075.773,184.986,1052.287,140.954Z"/><path class="c" d="M1073.227,124.473c-11.022-20.664-30.484-30.271-54.981-24.515-23.041,5.415-43.6,18.976-61,33.468-3.652,3.042-8.267,2.773-11.92,0-13.018-9.88-25.036-22.518-41.133-28.2a48.3,48.3,0,0,0-45.486,6.846c-22.143,16.773-31.178,47.832-29.252,73.314,2.022,26.74,20.791,48.589,39.794,67.5,28.72,28.585,59.1,55.538,90.489,81.5a369.576,369.576,0,0,0,68.735-55.678C1067.316,238.381,1101.846,178.13,1073.227,124.473Z"/></g><g transform="translate(-12.105 523.945)"><path class="d" d="M888.588,252.55c-10.49-3.929-15.191-4.515-25.788-8.146a4.415,4.415,0,0,0-2.879-.072c-4.049,1.421-1.457,7.146,1.548,9.891,17.322,15.827,38.607,30.47,62.022,28.936,7.376-.483,15.067-2.884,19.778-8.58,6.759-8.172,5.4-20.26,2.337-30.414-4.21-13.969-13.405-33.4-23.184-47.4a2.39,2.39,0,0,0-4.263,2.023c2.543,8.719,6.038,18.873,8.176,24.544-8.482-11.552-23.246-50.285-33.028-45.719-2.5,1.069,11.33,32.479,15.8,45.55q-10.19-13.7-20.381-27.4c-2.791-3.752-6.4-8.326-10.6-10.52-8.525-4.446-3.858,9.428-2.2,12.68A141.833,141.833,0,0,0,886.979,216.1c2.074,2.895,4.336,5.622,6.529,8.424a12.6,12.6,0,0,1,1.634,3.718c.032.128-.314,1.166-1.371.511-11.968-7.414-16.322-18.611-27.3-27.548a3.983,3.983,0,0,0-4.889-.189c-2.029,1.556-1.207,4.161-.2,6.139,10.219,20.035,19.646,32.506,27.84,44.748"/><g class="e"><path class="d" d="M945.606,244.165c-4.209-13.969-13.405-33.4-23.184-47.4a2.391,2.391,0,0,0-4.264,2.023c2.544,8.719,6.039,18.873,8.177,24.544-7.727-10.524-20.665-43.588-30.3-45.944,22.216,27.758,36.124,75.312,18.536,105.589a52.732,52.732,0,0,0,8.923.183c7.376-.483,15.067-2.884,19.778-8.58C950.028,266.407,948.667,254.319,945.606,244.165Z"/></g><path class="f" d="M890.134,252.731a31.653,31.653,0,0,1,6.456-2.32,37.186,37.186,0,0,1,6.751-1.042,29.436,29.436,0,0,1,6.893.367,18.742,18.742,0,0,1,6.529,2.36c-2.339.139-4.528.192-6.712.3l-6.513.358c-2.176.125-4.368.245-6.6.291A42.327,42.327,0,0,1,890.134,252.731Z"/><path class="d" d="M1028.02,254.491c10.489-3.929,15.191-4.515,25.787-8.146a4.418,4.418,0,0,1,2.88-.072c4.049,1.421,1.457,7.145-1.548,9.891-17.322,15.827-38.607,30.47-62.022,28.936-7.376-.483-15.067-2.884-19.778-8.58-6.759-8.172-5.4-20.26-2.338-30.414,4.21-13.969,13.406-33.4,23.185-47.4a2.39,2.39,0,0,1,4.263,2.023c-2.543,8.719-6.038,18.873-8.177,24.544,8.483-11.552,23.247-50.285,33.029-45.719,2.5,1.069-11.33,32.48-15.8,45.55l20.382-27.4c2.791-3.752,6.4-8.326,10.6-10.52,8.525-4.446,3.858,9.427,2.2,12.68a141.845,141.845,0,0,1-11.058,18.171c-2.074,2.9-4.336,5.622-6.529,8.424a12.6,12.6,0,0,0-1.634,3.718c-.032.128.314,1.166,1.371.511,11.968-7.414,16.322-18.611,27.3-27.548a3.983,3.983,0,0,1,4.889-.189c2.029,1.556,1.207,4.161.2,6.139-10.219,20.035-19.646,32.506-27.84,44.748"/><g class="e"><path class="d" d="M971,246.106c4.21-13.969,13.406-33.4,23.185-47.4a2.39,2.39,0,0,1,4.263,2.022c-2.543,8.72-6.038,18.874-8.177,24.545,7.728-10.524,20.666-43.588,30.3-45.944-22.216,27.758-36.124,75.312-18.536,105.589a52.627,52.627,0,0,1-8.923.183c-7.376-.483-15.067-2.884-19.778-8.58C966.58,268.348,967.941,256.26,971,246.106Z"/></g><path class="f" d="M1026.474,254.673a42.439,42.439,0,0,1-6.808.317c-2.228-.046-4.42-.166-6.6-.29l-6.513-.359c-2.184-.112-4.374-.165-6.712-.3a18.741,18.741,0,0,1,6.529-2.36,29.435,29.435,0,0,1,6.893-.367,37.275,37.275,0,0,1,6.751,1.042A31.6,31.6,0,0,1,1026.474,254.673Z"/><path class="g" d="M956.675,266.194c-13.51-11-27.1-22.081-38.376-35.363s-20.213-29.039-22.866-46.257c-1.631-10.588.608-23.718,10.484-27.872,4.552-1.915,9.763-1.407,14.554-.213a55.318,55.318,0,0,1,34.545,26.506c4.513-8.644,9.2-17.516,16.642-23.821s18.384-9.495,27.136-5.2c10.149,4.984,13.752,17.817,13.44,29.119-.479,17.361-7.573,34.107-17.877,48.087s-23.7,25.409-37.827,35.514"/><g class="h"><path class="g" d="M998.794,153.977c-8.752-4.3-19.7-1.108-27.136,5.2-7.118,6.034-11.717,14.418-16.055,22.7.318,28.172.939,56.34,1.35,84.51,13.969-10.029,27.2-21.363,37.4-35.2,10.3-13.98,17.4-30.726,17.877-48.087C1012.546,171.794,1008.943,158.961,998.794,153.977Z"/></g></g></g></svg>