<svg xmlns="http://www.w3.org/2000/svg" xmlns:xlink="http://www.w3.org/1999/xlink" width="80" height="40" viewBox="0 0 80 40"><defs><style>.a,.m{fill:#fff;}.a{stroke:#707070;}.b{clip-path:url(#a);}.c{fill:#636da4;}.d{fill:#7587b3;}.e{fill:#323752;}.f{fill:#4a527b;}.g{fill:#ff3e3a;}.h{fill:#ff6053;}.i{fill:#ffd06a;}.j{fill:#ff985f;}.k{fill:#ffe7b5;}.l{fill:#ffb464;}</style><clipPath id="a"><rect class="a" width="80" height="40" transform="translate(1332 636)"/></clipPath></defs><g class="b" transform="translate(-1332 -636)"><g transform="translate(1344 631.815)"><path class="c" d="M40,2.414A2.414,2.414,0,0,0,37.586,0H35.171V24.306h2.414A2.414,2.414,0,0,0,40,21.891V10.865L38.793,7.243,40,4.829Z" transform="translate(16 8.37)"/><path class="d" d="M35.171,0H7.243A2.414,2.414,0,0,0,4.829,2.414V4.829L6.036,7.243,4.829,10.865V21.891a2.414,2.414,0,0,0,2.414,2.414H35.171a2.414,2.414,0,0,0,2.414-2.414V2.414A2.414,2.414,0,0,0,35.171,0Z" transform="translate(16 8.37)"/><path class="e" d="M40,4.829H37.586L36.378,7.243l1.207,3.622H40Z" transform="translate(16 8.37)"/><path class="f" d="M4.829,4.829H37.586v6.036H4.829Z" transform="translate(16 8.37)"/><path class="g" d="M32.757,15.694H30.342V40h2.414a2.414,2.414,0,0,0,2.414-2.414V18.109A2.414,2.414,0,0,0,32.757,15.694Z"/><path class="h" d="M30.342,15.694H2.414A2.414,2.414,0,0,0,0,18.109V37.586A2.414,2.414,0,0,0,2.414,40H30.342a2.414,2.414,0,0,0,2.414-2.414V18.109A2.414,2.414,0,0,0,30.342,15.694Z"/><path class="i" d="M4.829,24.145v1.207a2.414,2.414,0,0,0,2.414,2.414h.8l1.207-4.829Z"/><path class="j" d="M11.268,27.767h.8a2.414,2.414,0,0,0,2.414-2.414V24.145L10.06,22.938Z"/><path class="k" d="M8.048,20.523h-.8a2.414,2.414,0,0,0-2.414,2.414v1.207H9.256Z"/><path class="i" d="M12.072,20.523h-.8L10.06,24.145h4.427V22.938A2.414,2.414,0,0,0,12.072,20.523Z"/><path class="l" d="M8.048,20.523h3.219v7.243H8.048Z"/><path class="m" d="M17.586,35.775H4.829a.6.6,0,0,1,0-1.207H17.586a.6.6,0,0,1,0,1.207Z"/><path class="m" d="M15.171,32.153a.6.6,0,0,1-.6-.6V30.181a.6.6,0,1,1,1.207,0v1.368A.6.6,0,0,1,15.171,32.153Z"/><path class="m" d="M17.586,32.153a.6.6,0,0,1-.6-.6V30.181a.6.6,0,1,1,1.207,0v1.368A.6.6,0,0,1,17.586,32.153Z"/><path class="m" d="M20,32.153a.6.6,0,0,1-.6-.6V30.181a.6.6,0,1,1,1.207,0v1.368A.6.6,0,0,1,20,32.153Z"/><path class="m" d="M7.243,32.153a.6.6,0,0,1-.6-.6V30.181a.6.6,0,1,1,1.207,0v1.368A.6.6,0,0,1,7.243,32.153Z"/><path class="m" d="M4.829,32.153a.6.6,0,0,1-.6-.6V30.181a.6.6,0,1,1,1.207,0v1.368A.6.6,0,0,1,4.829,32.153Z"/><path class="m" d="M9.658,32.153a.6.6,0,0,1-.6-.6V30.181a.6.6,0,1,1,1.207,0v1.368A.6.6,0,0,1,9.658,32.153Z"/><path class="m" d="M27.928,32.153a.6.6,0,0,1-.6-.6V30.181a.6.6,0,0,1,1.207,0v1.368A.6.6,0,0,1,27.928,32.153Z"/><path class="m" d="M25.513,32.153a.6.6,0,0,1-.6-.6V30.181a.6.6,0,1,1,1.207,0v1.368A.6.6,0,0,1,25.513,32.153Z"/><path class="m" d="M30.342,32.153a.6.6,0,0,1-.6-.6V30.181a.6.6,0,1,1,1.207,0v1.368A.6.6,0,0,1,30.342,32.153Z"/></g></g></svg>