<svg xmlns="http://www.w3.org/2000/svg" xmlns:xlink="http://www.w3.org/1999/xlink" width="80" height="40" viewBox="0 0 80 40"><defs><style>.a{fill:#fff;stroke:#707070;}.b{clip-path:url(#a);}.c{fill:#59c77f;}.d{fill:#142133;}</style><clipPath id="a"><rect class="a" width="80" height="40" transform="translate(1212 636)"/></clipPath></defs><g class="b" transform="translate(-1212 -636)"><g transform="translate(1212 647.342)"><path class="c" d="M7.512,14.407a10.461,10.461,0,0,1-1.051.827,11.162,11.162,0,0,1-1.356.81,10.359,10.359,0,0,1-1.485.616,4.645,4.645,0,0,1-1.438.246,2.724,2.724,0,0,1-1.027-.17,1.711,1.711,0,0,1-.675-.475,1.834,1.834,0,0,1-.37-.745A3.94,3.94,0,0,1,0,14.548a10.2,10.2,0,0,1,.17-1.72q.17-.98.417-2.031l.522-2.1L1.6,6.777a1.047,1.047,0,0,1,.329-.522A2.107,2.107,0,0,1,2.483,5.9a3.106,3.106,0,0,1,.646-.2,3.241,3.241,0,0,1,.6-.065A.931.931,0,0,1,4.4,5.82a.672.672,0,0,1,.176.487,3.465,3.465,0,0,1-.117.745q-.117.487-.293,1.1L3.792,9.483q-.2.71-.376,1.42t-.293,1.385A7.192,7.192,0,0,0,3.005,13.5a2.437,2.437,0,0,0,.117.839.465.465,0,0,0,.481.311,1.937,1.937,0,0,0,.939-.293,8.364,8.364,0,0,0,1.045-.71q.528-.417,1.033-.863t.892-.763v2.383ZM2.265,2.34a1.975,1.975,0,0,1,.5-1.25,2.12,2.12,0,0,1,.7-.5A2.588,2.588,0,0,1,4.566.38a3.092,3.092,0,0,1,.775.094,1.886,1.886,0,0,1,.634.288,1.367,1.367,0,0,1,.429.511,1.661,1.661,0,0,1,.158.751,2.367,2.367,0,0,1-.129.775,1.8,1.8,0,0,1-.411.669,2.118,2.118,0,0,1-.71.475,2.619,2.619,0,0,1-1.027.182,2.1,2.1,0,0,1-1.526-.487,1.741,1.741,0,0,1-.493-1.3"/><path class="d" d="M23.51,16.907H19.735l-4.9-5.626H11.777v5.626H8.6V.054L16.61.078c3.967.024,6.059,2.669,6.059,5.578a4.993,4.993,0,0,1-4.256,5.289l5.1,5.746v.216ZM11.777,3.035V8.421H16.61a2.624,2.624,0,0,0,2.885-2.693A2.637,2.637,0,0,0,16.61,3.035H11.777Z"/><path class="c" d="M22.894,11.849a18.371,18.371,0,0,1,1.518-4.2,12.915,12.915,0,0,1,2.818-4.006c1.1-.975,2.46-1.552,3.6-.96a6.471,6.471,0,0,1,2.385,2.758c1.314,2.337,2.308,4.867,3.438,7.316.516,1.118-.546,2.652-1.561,3.553-.439.39-.965.721-1.422.426a3.024,3.024,0,0,1-.861-1.4c-.59-1.34-1.1-2.726-1.689-4.065a10.779,10.779,0,0,0-2.247-3.729c-.366-.332-.862-.668-1.427-.168a5,5,0,0,0-1.214,2.1c-.573,1.554-.852,3.132-1.278,4.7l-2.062-2.324"/><path class="d" d="M42.475,1.713a1.731,1.731,0,0,1-3.462,0,1.731,1.731,0,0,1,3.462,0m-3.2,15.194h2.933V5.007H39.278ZM52.6,8.205a4,4,0,0,0-2.933-1.058c-1.394,0-2.164.433-2.164,1.178,0,.769.7,1.2,2.212,1.3,2.236.144,5.073.649,5.073,3.8,0,2.092-1.707,3.895-5.1,3.895A6.935,6.935,0,0,1,44.205,15.2l1.442-2.092a6.5,6.5,0,0,0,4.087,1.659c1.106.024,2.14-.553,2.14-1.418,0-.817-.673-1.154-2.356-1.251-2.236-.168-4.9-.985-4.9-3.678,0-2.741,2.837-3.7,5-3.7a6.365,6.365,0,0,1,4.616,1.563L52.6,8.2Zm6.562,3.823c.192,1.466,1.467,2.524,3.534,2.524a4.892,4.892,0,0,0,3.173-1.106L67.741,15.3a7.281,7.281,0,0,1-5.1,1.923c-4.087,0-6.515-2.524-6.515-6.323a5.931,5.931,0,0,1,6.3-6.2c3.967,0,6.443,2.451,5.986,7.333H59.16ZM65.6,9.6c-.192-1.539-1.394-2.308-3.077-2.308A3.193,3.193,0,0,0,59.207,9.6h6.4ZM73.39,5.056l.215,1.37a3.493,3.493,0,0,1,3.342-1.683A4.5,4.5,0,0,1,80,5.873L78.678,8.421a2.93,2.93,0,0,0-2.116-.769,2.735,2.735,0,0,0-2.957,3.005v6.251H70.672V5.055h2.717Z"/></g></g></svg>